<svg xmlns="http://www.w3.org/2000/svg" viewBox="0 0 1122 1000"><path d="M0 698V326q0-13 13-13h176V184q0-14 13-14h98v514q0 14-12 14H0zm109-83h67q13 0 13-14V395h-67q-13 0-13 14v206zm225 83V326q0-13 13-13h98v371q0 14-12 14h-99zm0-445v-69q0-14 12-14h99v69q0 14-12 14h-99zm149 445V326q0-13 13-13h288v504q0 13-13 13H483l1-69q0-14 12-14h176v-49H483zm110-83h67q12 0 12-14V395h-67q-12 0-12 14v206zm229 146q0-14 13-14h176v-49H822V326q0-13 13-13h287v504q0 13-12 13H822v-69zm109-146h67q13 0 13-14V395h-67q-13 0-13 14v206z"/></svg>