<svg xmlns="http://www.w3.org/2000/svg" viewBox="0 0 837 1000"><path d="M0 309q0-40 15-58 9-14 26-21 18-9 47-9h94q15 0 26-11t11-26q0-21-1-44V81q0-25 12-44 15-21 50-31 11-6 53-6h19q59 2 98 17 38 16 45 62 26-1 48-1 53 0 89 5 97 12 129 24 42 13 53 67 10 55 18 210 5 89 5 147 0 44-3 71-16 172-43 254-14 42-28 69t-27 42-37 23-42 9-59 1q-108 0-145-25t-38-107q0-45 10-72t33-37 46-13q15-1 40-1h28q4 0 6 1t0 5-2 8-3 11-2 13q0 9 2 18t1 12-7 3h-30l-10 2-8 2-8 4-6 6-4 9-1 12q0 14 4 23t8 14 18 7 22 2h32q57 0 73-13t16-64q0-76-18-103t-57-31q-88-9-119-20-53-20-53-119 0-2-2-2t-3 2q0 67-18 120l-8 24q-11 25-37 26h-6q-24 0-54-8-127-16-198-47-24-11-37-40-17-35-35-129T4 360q-4-33-4-51zm6-119v-2L189 8q0-1 1-1l-3 6q-11 20-11 48 0 22 1 103 0 10-10 10H74q-34 0-59 11-5 3-9 5zm568 290q21-3 46-3 45 1 81 18 0-85-61-87h-3q-30 0-44 20-15 21-19 52z"/></svg>