<svg xmlns="http://www.w3.org/2000/svg" viewBox="0 0 1184 1000"><path d="M0 818q0-87 89-155t215-68h54q-42-40-42-86 0-29 16-58-10 1-29 1-104 0-170-65T67 227q0-91 82-159T336 0h310l-69 50h-98q47 18 74 68t26 111q0 93-88 162-37 29-48 46t-11 42q0 19 27 48t54 49q61 43 85 88t23 113q0 90-82 157t-222 66q-133 0-225-50T0 818zm112-33q0 69 59 118t145 48q119 0 173-44t53-117q0-19-4-32-3-11-7-21t-12-19-14-16-19-16-21-15-25-18-26-17q-39-12-77-12-90-1-157 47t-68 114zm66-559q11 79 61 136t109 58q59 2 94-52t25-133-59-134-110-57-95 51-25 131zm555 24v-50h200V0h50v200h201v50H983v201h-50V250H733z"/></svg>