<svg xmlns="http://www.w3.org/2000/svg" viewBox="0 0 579 1000"><path d="M290 0C147 0 32 116 32 258s115 258 258 258c142 0 258-116 258-258S432 0 290 0zm0 151c59 0 107 48 107 107s-48 107-107 107-107-48-107-107 48-107 107-107zM77 525c-26-1-51 12-65 35-23 36-12 82 23 105 47 29 98 50 150 62L41 871c-30 30-30 77 0 107 15 15 34 22 53 22 20 0 39-7 54-22l142-142 141 142c30 29 78 29 107 0 30-30 30-78 0-107L394 727c53-12 103-33 150-62 35-23 46-69 24-105-23-35-69-46-105-23-105 66-241 66-347 0-12-8-26-12-39-12z"/></svg>