<svg xmlns="http://www.w3.org/2000/svg" viewBox="0 0 774 1000"><path d="M0 359q0-63 27-125t76-115 130-86T411 0q159 0 261 98t102 231q0 171-86 282T464 723q-45 0-84-21t-56-51l-40 158q-5 19-13 38t-17 38-19 34-19 30-17 24-13 16l-6 8q-3 4-8 3t-6-6q0-1-1-14t-3-27-3-38-1-44 3-48 7-48q11-47 74-313-8-16-13-39t-5-36l-1-15q0-64 33-107t78-42q37 0 58 24t20 62q0 23-8 56t-23 77-20 71q-10 45 18 78t73 33q79 0 131-90t51-216q0-97-63-159T395 98q-126 0-204 81t-79 194q0 67 38 113 13 15 8 32-2 5-6 23t-6 23q-2 11-10 14t-18 0q-59-24-88-83T0 359z"/></svg>