<svg xmlns="http://www.w3.org/2000/svg" viewBox="0 0 1205 1000"><path d="M0 497q0-62 50-106t112-44q62 0 105 36h5q134-82 335-82l5-4 70-267 242 36q0 1 2 1 1 0 0-1 2-1 12-16t14-18q34-32 82-32 49 0 83 32t33 82-33 84-83 35q-57 0-87-39t-30-96q-2 1-97-13T710 68h-3q-2 2-16 53t-30 109-18 64v3l5 4q72 0 148 20t130 58l3 2q1-1 2-1t2-1q25-18 36-25t29-13 43-6q68 0 116 48t48 117q0 47-26 86t-70 60q0 195-260 303-41 18-56 23-32 10-91 19t-93 9q-120 0-231-35-2-2-72-38-95-51-152-116T96 655h-5q-33-17-59-50l-9-12Q8 566 4 547t-4-50zm34 12q0 66 57 112 5-59 48-116t101-101q-37-26-82-26-49 0-86 40t-38 91zm102 146q0 54 31 104t80 85 102 60 105 34q75 14 146 14 123 0 233-39t185-123h-3q30-38 43-69t13-72q0-54-26-103t-70-84-92-61-100-38q-85-23-181-23-74 0-151 18t-150 54-119 99-46 144zm186-73q0-37 23-60t59-22 62 22 25 60q0 36-25 60t-62 24-59-24-23-60zm36 164h44q25 45 80 68t111 24q58 0 110-24t84-68h41q-25 62-93 96t-142 34q-72 0-141-35t-94-95zm336-164q0-38 23-60t61-22q34 0 58 24t24 58-24 59-58 25q-37 0-60-24t-24-60zm255-468q0 35 25 60t60 25q36 0 59-25t23-60q0-34-24-58t-58-24-59 24-26 58zm14 281q55 36 95 92t56 120q59-43 59-96 0-58-35-100t-93-42q-45 0-82 26z"/></svg>