<svg xmlns="http://www.w3.org/2000/svg" viewBox="0 0 1220 1000"><path d="M0 196q10-8 25-12 14-4 25-4h9q10 0 24 1 22 1 32 1 6 0 38-2 16-1 29-1t23 1q20 2 32 8 6 3 13 13t12 19 11 25 10 22q38 82 94 163 2 3 7 11t9 12 9 12 10 11 11 8 11 6 12 0q28-5 31-117 1-19 1-35 0-74-15-102-6-11-15-18t-25-12-23-10q14-28 50-37t96-9h79l27 3 22 6 20 9 12 14q9 18 11 42 0 7 1 14 0 20-3 52-4 42-4 52-3 23-3 46 0 18 2 38 4 44 30 61 9-1 17-4t15-11 11-12 13-16 10-14q47-62 94-163l9-23 12-26 12-20 15-13q16-7 38-7h9q20 0 46 2 32 2 47 2 9 0 28-1t32-2 30 1 25 6 14 13q3 6 3 13 0 29-35 87-17 29-34 52t-46 58-37 47q-2 2-14 18t-17 24-12 22-5 27q0 8 3 15t10 15 10 12 13 13 12 11q71 65 112 117 40 52 40 75 0 33-51 41-26 4-53 4-21 0-43-3-20-2-37-2-26 0-45 5h-6q-66-11-139-94-4-4-17-21t-22-25-23-17-27-6q-23 4-30 29t-9 59-10 49q-13 24-79 24-28 0-66-4-78-8-141-40t-101-68-81-92Q136 511 43 322q-3-6-11-23t-12-25-9-24-8-28-3-26z"/></svg>