<svg xmlns="http://www.w3.org/2000/svg" viewBox="0 0 863 1000"><path d="M0 727q0-54 6-162 4-53 38-87t87-36q100-5 301-5t301 5q53 3 87 36t38 87q5 90 5 162t-5 162q-4 53-38 87t-87 36q-100 5-301 5t-301-5q-53-3-87-36T6 889Q0 781 0 727zm67-141h61v326h59V586h61v-55H67v55zm65-603h60l38 152h4l36-152h60l-46 148q-23 73-23 75v158h-59V213q-2-14-5-26t-9-26-9-25zm116 885q0 48 36 48 32 0 61-35v31h52V631h-52v214q-21 21-31 21-14 0-14-19V631h-52v237zm79-575V147q0-34 22-53t56-18q33 0 54 20t20 53v145q0 36-20 56t-56 21q-35 0-55-22t-21-56zm54 7q0 23 22 23 23 0 23-25V145q0-9-7-15t-16-6-15 5-7 15v156zm67 612h53v-21q20 25 50 25 47 0 47-62V698q0-71-51-71-25 0-46 27V531h-53v381zm53-53V683q11-11 22-11 22 0 22 28v148q0 24-19 24-14 0-25-13zm23-539V83h52v215q0 19 14 19 13 0 31-21V83h52v281h-52v-31q-29 35-61 35-36 0-36-48zm114 513q0 38 19 63t57 24q78 0 78-87v-21h-54q0 2 1 13t-1 17-2 14-7 12-14 3q-23 0-23-40v-53h100v-72q0-38-18-60t-57-22q-36 0-57 23t-22 59v127zm54-99v-30q0-31 23-31t23 31v30h-46z"/></svg>