<svg xmlns="http://www.w3.org/2000/svg" viewBox="0 0 960 1000"><path d="M480 20q200 0 340 141t140 339q0 200-140 340T480 980q-198 0-339-140T0 500q0-198 141-339T480 20zm410 480q0-132-78-239T610 112q-18 24-16 32 4 38 18 51t30 7l32-12 20-2q22 24 0 47t-45 56-1 77q34 64 96 64 28 2 43 36t17 66q10 80-14 140-22 44 14 76 86-112 86-250zM424 96q-112 14-199 84T98 354q6 0 22 2t28 3 26 4 24 8 12 13q4 12-14 45t-18 61q0 30 38 56t38 46q0 28 8 68t8 44q0 12 36 54t52 42q10 0 11-22t-2-54-3-40q0-32 14-74 12-42 59-70t55-46q16-34 9-61t-17-43-34-28-41-17-37-9-22-4q-16-6-42-7t-36 3-27-11-17-29q0-10 15-27t35-37 28-30q8-14 17-21t22-16 27-21q4-4 25-17t27-23zm-72 794q66 20 128 20 128 0 226-68-26-44-118-34-24 2-65 17t-47 17q-74 16-76 16-12 2-26 14t-22 18z"/></svg>