<svg xmlns="http://www.w3.org/2000/svg" viewBox="0 0 1000 1000"><path d="M294 778q0 29-21 50t-51 21q-29 0-50-21t-21-50q0-30 21-51t50-21 51 21 21 51zm277 115q0 29-20 50t-51 21-50-21-21-50 21-51 50-21 51 21 20 51zM179 500q0 30-21 50t-51 21-50-21-21-50 21-51 50-20 51 20 21 51zm670 278q0 29-21 50t-50 21q-30 0-51-21t-20-50 20-51 51-21 50 21 21 51zM311 222q0 37-26 63t-63 26-63-26-26-63 26-63 63-26 63 26 26 63zm653 278q0 30-21 50t-50 21-51-21-21-50 21-51 51-20 50 20 21 51zM607 107q0 45-31 76t-76 31-76-31-31-76 31-76 76-31 76 31 31 76zm296 115q0 52-37 88t-88 37q-52 0-88-37t-37-88q0-51 37-88t88-37q51 0 88 37t37 88z"/></svg>