<svg xmlns="http://www.w3.org/2000/svg" viewBox="0 0 785.7 1000"><path d="M151 527l-56 57q-24-58-24-120v-71q0-15 11-25t25-11 25 11 11 25v71q0 30 8 63zm622-336L571 393v71q0 74-52 126t-126 53q-31 0-61-11l-53 54q54 28 114 28 103 0 177-73t73-177v-71q0-15 11-25t25-11 25 11 10 25v71q0 124-82 215T429 783v74h142q15 0 26 11t10 25-10 25-26 11H214q-14 0-25-11t-10-25 10-25 25-11h143v-74q-70-7-131-45L84 880q-5 6-13 6t-12-6l-46-46q-6-5-6-13t6-12l689-689q5-6 12-6t13 6l46 46q6 5 6 13t-6 12zm-212-73L214 464V179q0-74 53-127T393 0q57 0 103 33t65 85z"/></svg>