<svg xmlns="http://www.w3.org/2000/svg" viewBox="0 0 928.6 1000"><path d="M429 196v608q0 14-11 25t-25 10-25-10L182 643H36q-15 0-25-11T0 607V393q0-15 11-25t25-11h146l186-186q10-10 25-10t25 10 11 25zm214 304q0 42-24 79t-63 52q-5 3-14 3-14 0-25-10t-10-26q0-12 6-20t17-14 19-12 16-21 6-31-6-32-16-20-19-13-17-13-6-20q0-15 10-26t25-10q9 0 14 3 39 15 63 52t24 79zm143 0q0 85-48 158T613 763q-7 3-14 3-15 0-26-11t-10-25q0-22 21-33 32-16 43-25 41-30 64-75t23-97-23-97-64-75q-11-9-43-25-21-11-21-33 0-14 10-25t25-11q8 0 15 3 78 33 125 105t48 158zm143 0q0 128-71 236T669 894q-7 3-14 3-15 0-25-11t-11-25q0-20 22-33l12-6q8-4 13-6 25-14 46-28 68-51 107-127t38-161-38-161-107-127q-21-15-46-28-4-3-13-6t-12-6q-22-13-22-33 0-15 11-25t25-11q7 0 14 3 118 51 189 158t71 236z"/></svg>